# xmcd
#
# Track frame offsets:
#	150
#	18904
#	32222
#	57245
#	74160
#	88752
#	99161
#	116822
#	133916
#	144739
#	157758
#	169698
#	184658
#	209168
#	219930
#	234682
#	247262
#	258555
#	267522
#	280283
#	298791
#	312052
# Disc length: 4382 seconds
# Revision: 1
# Processed by: cddbd v1.5.2PL0 Copyright (c) Steve Scherf et al.
#
# Submitted via: libkcddb 0.31
#
DISCID=5d111c16
DTITLE=Various Artist - Bloodshot Records Sampler 7
DYEAR=2007
DGENRE=Alternative
TTITLE0=Deadstring Brothers - Ain't No Hidin' Love
TTITLE1=The Detroit Cobras - As Long As I Have You
TTITLE2=Graham Parker - I Discovered America
TTITLE3=Ha Ha Tonka - St. Nick On The Fourth
TTITLE4=Gore Gore Girls - Loaded Heart
TTITLE5=Scotland Yeard Gospel Choir - Aspidistra
TTITLE6=Danbert Nobacon and The Pine Valley Cosmonauts - Straight Talk
TTITLE7=Caroline Herring - Song For Fay
TTITLE8=Dollar Store - Money Music
TTITLE9=Amy Nelson and Cathy Guthrie - Wildwood Flower
TTITLE10=Jon Rauhouse - Bongo Ride
TTITLE11=The Silos - Tell Me You Love Me
TTITLE12=Bobby Bare Jr - Borrow Your Cape
TTITLE13=Wayne Hancock - No Sleep Blues
TTITLE14=Paul Burch - Montreal
TTITLE15=The Bottle Rockets - Suffering Servant
TTITLE16=Scott H Biram - Graveyard Shift
TTITLE17=Wee Hairy Beasties - Road Safety Song
TTITLE18=Ryan Adams - Shakedown
TTITLE19=Alejandro Escovedo - Rhapsody
TTITLE20=Legendary Shack Shakers - CB Song
TTITLE21=Old 97s - Doreen
EXTD=
EXTT0=
EXTT1=
EXTT2=
EXTT3=
EXTT4=
EXTT5=
EXTT6=
EXTT7=
EXTT8=
EXTT9=
EXTT10=
EXTT11=
EXTT12=
EXTT13=
EXTT14=
EXTT15=
EXTT16=
EXTT17=
EXTT18=
EXTT19=
EXTT20=
EXTT21=
PLAYORDER=
